<mxfile host="app.diagrams.net" agent="Mozilla/5.0 (Windows NT 10.0; Win64; x64) AppleWebKit/537.36 (KHTML, like Gecko) Chrome/127.0.0.0 Safari/537.36 Edg/127.0.0.0" version="24.7.7">
  <diagram name="Page-1" id="grWeg9WmFBKsxtDqwtvw">
    <mxGraphModel dx="1386" dy="757" grid="1" gridSize="10" guides="1" tooltips="1" connect="1" arrows="1" fold="1" page="1" pageScale="1" pageWidth="827" pageHeight="1169" math="0" shadow="0">
      <root>
        <mxCell id="0" />
        <mxCell id="1" parent="0" />
        <mxCell id="pF5VhgAsKEO8zrK8QB7V-1" value="" style="rounded=1;whiteSpace=wrap;html=1;" parent="1" vertex="1">
          <mxGeometry x="42" y="390" width="170" height="120" as="geometry" />
        </mxCell>
        <mxCell id="pF5VhgAsKEO8zrK8QB7V-2" style="edgeStyle=orthogonalEdgeStyle;rounded=0;orthogonalLoop=1;jettySize=auto;html=1;" parent="1" source="pF5VhgAsKEO8zrK8QB7V-3" edge="1">
          <mxGeometry relative="1" as="geometry">
            <mxPoint x="360" y="250" as="targetPoint" />
          </mxGeometry>
        </mxCell>
        <mxCell id="pF5VhgAsKEO8zrK8QB7V-3" value="观测云" style="shape=mxgraph.ibm.box;prType=vpc;fontStyle=0;verticalAlign=top;align=left;spacingLeft=32;spacingTop=4;fillColor=none;rounded=0;whiteSpace=wrap;html=1;strokeColor=#4376BB;strokeWidth=2;dashed=0;container=1;spacing=-4;collapsible=0;expand=0;recursiveResize=0;" parent="1" vertex="1">
          <mxGeometry x="42" y="140" width="140" height="220" as="geometry" />
        </mxCell>
        <mxCell id="pF5VhgAsKEO8zrK8QB7V-4" value="FUNC" style="rounded=0;whiteSpace=wrap;html=1;" parent="pF5VhgAsKEO8zrK8QB7V-3" vertex="1">
          <mxGeometry x="9" y="80" width="120" height="60" as="geometry" />
        </mxCell>
        <mxCell id="pF5VhgAsKEO8zrK8QB7V-5" value="" style="rounded=0;whiteSpace=wrap;html=1;strokeColor=#FF0000;" parent="1" vertex="1">
          <mxGeometry x="370" y="140" width="590" height="320" as="geometry" />
        </mxCell>
        <mxCell id="pF5VhgAsKEO8zrK8QB7V-6" value="监控展示平台" style="text;html=1;align=center;verticalAlign=middle;whiteSpace=wrap;rounded=0;fontSize=16;fontStyle=1;fontFamily=Georgia;fontColor=#0000CC;" parent="1" vertex="1">
          <mxGeometry x="610" y="150" width="110" height="22" as="geometry" />
        </mxCell>
        <mxCell id="pF5VhgAsKEO8zrK8QB7V-7" value="检测上报模块" style="rounded=0;whiteSpace=wrap;html=1;fillColor=#dae8fc;strokeColor=#FF0000;" parent="1" vertex="1">
          <mxGeometry x="460" y="210" width="140" height="70" as="geometry" />
        </mxCell>
        <mxCell id="pF5VhgAsKEO8zrK8QB7V-8" value="数据查询模块" style="rounded=0;whiteSpace=wrap;html=1;fillColor=#dae8fc;strokeColor=#FF0000;" parent="1" vertex="1">
          <mxGeometry x="720" y="210" width="140" height="70" as="geometry" />
        </mxCell>
        <mxCell id="pF5VhgAsKEO8zrK8QB7V-9" value="事件模块" style="rounded=0;whiteSpace=wrap;html=1;fillColor=#E6E6E6;strokeColor=#FF0000;dashed=1;" parent="1" vertex="1">
          <mxGeometry x="460" y="330" width="140" height="70" as="geometry" />
        </mxCell>
        <mxCell id="pF5VhgAsKEO8zrK8QB7V-10" value="图例" style="text;html=1;align=center;verticalAlign=middle;whiteSpace=wrap;rounded=0;fontSize=10;" parent="1" vertex="1">
          <mxGeometry x="40" y="390" width="60" height="30" as="geometry" />
        </mxCell>
        <mxCell id="pF5VhgAsKEO8zrK8QB7V-11" value="" style="endArrow=classic;html=1;rounded=0;fontSize=10;" parent="1" edge="1">
          <mxGeometry width="50" height="50" relative="1" as="geometry">
            <mxPoint x="60" y="430" as="sourcePoint" />
            <mxPoint x="90" y="430" as="targetPoint" />
          </mxGeometry>
        </mxCell>
        <mxCell id="pF5VhgAsKEO8zrK8QB7V-12" value="应用关系" style="text;html=1;align=center;verticalAlign=middle;whiteSpace=wrap;rounded=0;fontSize=10;" parent="1" vertex="1">
          <mxGeometry x="83" y="416" width="60" height="30" as="geometry" />
        </mxCell>
        <mxCell id="pF5VhgAsKEO8zrK8QB7V-13" value="" style="endArrow=none;html=1;rounded=0;strokeColor=#FF0000;fontSize=10;" parent="1" edge="1">
          <mxGeometry width="50" height="50" relative="1" as="geometry">
            <mxPoint x="150" y="430.5" as="sourcePoint" />
            <mxPoint x="180" y="430.5" as="targetPoint" />
          </mxGeometry>
        </mxCell>
        <mxCell id="pF5VhgAsKEO8zrK8QB7V-14" value="新增" style="text;html=1;align=center;verticalAlign=middle;whiteSpace=wrap;rounded=0;fontSize=10;" parent="1" vertex="1">
          <mxGeometry x="170" y="416" width="62" height="30" as="geometry" />
        </mxCell>
        <mxCell id="pF5VhgAsKEO8zrK8QB7V-15" value="" style="endArrow=none;html=1;rounded=0;strokeColor=#000000;fontSize=10;" parent="1" edge="1">
          <mxGeometry width="50" height="50" relative="1" as="geometry">
            <mxPoint x="148" y="460.5" as="sourcePoint" />
            <mxPoint x="178" y="460.5" as="targetPoint" />
          </mxGeometry>
        </mxCell>
        <mxCell id="pF5VhgAsKEO8zrK8QB7V-16" value="已有" style="text;html=1;align=center;verticalAlign=middle;whiteSpace=wrap;rounded=0;fontSize=10;" parent="1" vertex="1">
          <mxGeometry x="169" y="446" width="61" height="30" as="geometry" />
        </mxCell>
        <mxCell id="pF5VhgAsKEO8zrK8QB7V-17" value="Mini App" style="sketch=0;pointerEvents=1;shadow=0;dashed=0;html=1;strokeColor=none;fillColor=#505050;labelPosition=center;verticalLabelPosition=bottom;verticalAlign=top;outlineConnect=0;align=center;shape=mxgraph.office.devices.ipad_mini;" parent="1" vertex="1">
          <mxGeometry x="1210" y="137.5" width="33" height="47" as="geometry" />
        </mxCell>
        <mxCell id="pF5VhgAsKEO8zrK8QB7V-18" value="Web" style="verticalLabelPosition=bottom;aspect=fixed;html=1;shape=mxgraph.salesforce.web;" parent="1" vertex="1">
          <mxGeometry x="1196.5" y="260" width="60" height="47.400000000000006" as="geometry" />
        </mxCell>
        <mxCell id="pF5VhgAsKEO8zrK8QB7V-19" value="&lt;font color=&quot;#000000&quot;&gt;Screen&lt;/font&gt;" style="fontColor=#0066CC;verticalAlign=top;verticalLabelPosition=bottom;labelPosition=center;align=center;html=1;outlineConnect=0;fillColor=#CCCCCC;strokeColor=#6881B3;gradientColor=none;gradientDirection=north;strokeWidth=2;shape=mxgraph.networks.video_projector_screen;" parent="1" vertex="1">
          <mxGeometry x="1188.25" y="370" width="76.5" height="70" as="geometry" />
        </mxCell>
        <mxCell id="pF5VhgAsKEO8zrK8QB7V-20" value="" style="endArrow=block;dashed=1;html=1;rounded=0;endFill=0;" parent="1" edge="1">
          <mxGeometry width="50" height="50" relative="1" as="geometry">
            <mxPoint x="970" y="180" as="sourcePoint" />
            <mxPoint x="1170" y="180" as="targetPoint" />
          </mxGeometry>
        </mxCell>
        <mxCell id="pF5VhgAsKEO8zrK8QB7V-21" value="" style="endArrow=block;dashed=1;html=1;rounded=0;endFill=0;" parent="1" edge="1">
          <mxGeometry width="50" height="50" relative="1" as="geometry">
            <mxPoint x="970" y="299.5" as="sourcePoint" />
            <mxPoint x="1170" y="299.5" as="targetPoint" />
          </mxGeometry>
        </mxCell>
        <mxCell id="pF5VhgAsKEO8zrK8QB7V-22" value="" style="endArrow=block;dashed=1;html=1;rounded=0;endFill=0;" parent="1" edge="1">
          <mxGeometry width="50" height="50" relative="1" as="geometry">
            <mxPoint x="969" y="400" as="sourcePoint" />
            <mxPoint x="1169" y="400" as="targetPoint" />
            <Array as="points">
              <mxPoint x="1059" y="400" />
            </Array>
          </mxGeometry>
        </mxCell>
        <mxCell id="pF5VhgAsKEO8zrK8QB7V-23" value="" style="endArrow=block;dashed=1;html=1;rounded=0;endFill=0;fontSize=10;" parent="1" edge="1">
          <mxGeometry width="50" height="50" relative="1" as="geometry">
            <mxPoint x="55" y="460.5" as="sourcePoint" />
            <mxPoint x="85" y="460.5" as="targetPoint" />
          </mxGeometry>
        </mxCell>
        <mxCell id="pF5VhgAsKEO8zrK8QB7V-24" value="数据关系" style="text;html=1;align=center;verticalAlign=middle;whiteSpace=wrap;rounded=0;fontSize=10;" parent="1" vertex="1">
          <mxGeometry x="83" y="444" width="60" height="30" as="geometry" />
        </mxCell>
        <mxCell id="pF5VhgAsKEO8zrK8QB7V-25" value="服务接出模块" style="rounded=0;whiteSpace=wrap;html=1;fillColor=#E6E6E6;strokeColor=#FF0000;dashed=1;" parent="1" vertex="1">
          <mxGeometry x="720" y="330" width="140" height="70" as="geometry" />
        </mxCell>
        <mxCell id="pF5VhgAsKEO8zrK8QB7V-26" value="" style="rounded=0;whiteSpace=wrap;html=1;fillColor=#E6E6E6;strokeColor=#FF0000;dashed=1;fontSize=10;" parent="1" vertex="1">
          <mxGeometry x="53" y="485" width="27" height="15" as="geometry" />
        </mxCell>
        <mxCell id="pF5VhgAsKEO8zrK8QB7V-27" value="第二阶段" style="text;html=1;align=center;verticalAlign=middle;whiteSpace=wrap;rounded=0;fontSize=10;" parent="1" vertex="1">
          <mxGeometry x="80" y="478" width="60" height="30" as="geometry" />
        </mxCell>
      </root>
    </mxGraphModel>
  </diagram>
</mxfile>
